<svg width="326" height="50" viewBox="0 0 326 50" fill="none" xmlns="http://www.w3.org/2000/svg">
<path d="M34.5454 1.95472L48.3636 41.1365H48.9091L62.7273 1.95472H68.6364L51.5454 48.5002H45.7273L0 1.31836L34.5454 1.95472Z" fill="rgba(138, 117, 8, 1)"/>
<path d="M75.5227 48.5002V1.95472H103.614L102.159 7.22745L81.1591 6.95472V22.682H102.159V27.682H81.1591V43.5002H103.977V48.5002H75.5227Z" fill="rgba(138, 117, 8, 1)"/>
<path d="M114.136 48.5002V1.95472L129.682 1.31836C133.318 1.31836 136.485 2.57594 138.818 3.81836C141.152 5.04563 142.879 6.73503 144 8.88654C145.121 11.0381 145.682 13.485 145.682 16.2275C145.682 18.9699 145.121 21.4017 144 23.5229C142.879 25.6441 141.159 27.3108 138.841 28.5229C136.523 29.7199 133.561 30.3184 129.955 30.3184H117.227V25.2275H129.773C132.258 25.2275 134.258 24.8638 135.773 24.1365C137.303 23.4093 138.409 22.379 139.091 21.0456C139.788 19.6971 140.136 18.0911 140.136 16.2275C140.136 14.3638 139.788 12.735 139.091 11.3411C138.394 9.94715 137.28 8.87139 135.75 8.11382C134.22 7.34109 132.197 6.95472 129.682 6.95472H119.773V48.5002H114.136ZM136.045 27.5911L147.5 48.5002H140.955L129.682 27.5911H136.045Z" fill="rgba(138, 117, 8, 1)"/>
<path d="M160.71 1.31836V48.5002H155.074V0.5L160.71 1.31836Z" fill="rgba(138, 117, 8, 1)"/>
<path d="M209.466 16.2275L203.83 16.5002C203.496 14.879 202.913 13.4547 202.08 12.2275C201.261 11.0002 200.261 9.96988 199.08 9.13654C197.913 8.28806 196.617 7.65169 195.193 7.22745C193.769 6.80321 192.284 6.59109 190.739 6.59109C187.92 6.59109 185.367 7.30321 183.08 8.72745C180.807 10.1517 178.996 12.2502 177.648 15.0229C176.314 17.7956 175.648 21.1971 175.648 25.2275C175.648 29.2578 176.314 32.6593 177.648 35.432C178.996 38.2047 180.807 40.3032 183.08 41.7275C185.367 43.1517 187.92 43.8638 190.739 43.8638C192.284 43.8638 193.769 43.6517 195.193 43.2275C196.617 42.8032 197.913 42.1744 199.08 41.3411C200.261 40.4926 201.261 39.4547 202.08 38.2275C202.913 36.985 203.496 35.5608 203.83 33.9547H209.466C209.042 36.3335 208.269 38.4623 207.148 40.3411C206.027 42.2199 204.633 43.8184 202.966 45.1365C201.299 46.4396 199.428 47.432 197.352 48.1138C195.292 48.7956 193.087 49.1365 190.739 49.1365C186.769 49.1365 183.239 48.1668 180.148 46.2275C177.057 44.2881 174.625 41.5305 172.852 37.9547C171.08 34.379 170.193 30.1365 170.193 25.2275C170.193 20.3184 171.08 16.0759 172.852 12.5002C174.625 8.92442 177.057 6.16685 180.148 4.22745C183.239 2.28806 186.769 1.31836 190.739 1.31836C193.087 1.31836 195.292 1.65927 197.352 2.34109C199.428 3.02291 201.299 4.02291 202.966 5.34109C204.633 6.64412 206.027 8.23503 207.148 10.1138C208.269 11.9775 209.042 13.8335 209.466 16.2275Z" fill="rgba(138, 117, 8, 1)"/>
<path d="M257.847 25.2275C257.847 30.1365 256.96 34.379 255.187 37.9547C253.415 41.5305 250.983 44.2881 247.892 46.2275C244.801 48.1668 241.271 49.1365 237.301 49.1365C233.331 49.1365 229.801 48.1668 226.71 46.2275C223.619 44.2881 221.187 41.5305 219.415 37.9547C217.642 34.379 216.756 30.1365 216.756 25.2275C216.756 20.3184 217.642 16.0759 219.415 12.5002C221.187 8.92442 223.619 6.16685 226.71 4.22745C229.801 2.28806 233.331 1.31836 237.301 1.31836C241.271 1.31836 244.801 2.28806 247.892 4.22745C250.983 6.16685 253.415 8.92442 255.187 12.5002C256.96 16.0759 257.847 20.3184 257.847 25.2275ZM252.392 25.2275C252.392 21.1971 251.718 17.7956 250.369 15.0229C249.036 12.2502 247.225 10.1517 244.937 8.72745C242.665 7.30321 240.119 22 237.301 22C234.483 22 231.93 7.30321 229.642 8.72745C227.369 10.1517 225.559 12.2502 224.21 15.0229C222.877 17.7956 222.21 21.1971 222.21 25.2275C222.21 29.2578 222.877 32.6593 224.21 35.432C225.559 38.2047 227.369 40.3032 229.642 41.7275C231.93 43.1517 234.483 28 237.301 28C240.119 28 242.665 43.1517 244.937 41.7275C247.225 40.3032 249.036 38.2047 250.369 35.432C251.718 32.6593 252.392 29.2578 252.392 25.2275Z" fill="rgba(138, 117, 8, 1)"/>
<path d="M272.96 1.31836V48.5002H267.324L264.5 0.5L272.96 1.31836Z" fill="rgba(138, 117, 8, 1)"/>
<path d="M350 0.5L321.17 48.5002H315.716L290.352 11.9547H289.898V48.5002H284.261V1.95472H289.716L315.17 38.5911H315.625V1.95472L326 0.5Z" fill="rgba(138, 117, 8, 1)"/>
</svg>
